<svg width="296" height="61" viewBox="0 0 296 61" fill="none" xmlns="http://www.w3.org/2000/svg">
<g clip-path="url(#clip0_394_11724)">
<path d="M36.2757 22.1119V15.0583C36.2757 13.6728 35.1421 12.5392 33.7566 12.5392H26.703C25.3174 12.5392 24.1838 13.6728 24.1838 15.0583V22.1119C24.1838 23.4975 23.0502 24.6311 21.6647 24.6311H14.6111C13.2255 24.6311 12.0919 25.7647 12.0919 27.1502V34.2039C12.0919 35.5894 13.2255 36.723 14.6111 36.723H21.6647C23.0502 36.723 24.1838 37.8566 24.1838 39.2421V46.2958C24.1838 47.6813 25.3174 48.8149 26.703 48.8149H33.7566C35.1421 48.8149 36.2757 47.6813 36.2757 46.2958V39.2421C36.2757 37.8566 37.4094 36.723 38.7949 36.723H45.8485C47.234 36.723 48.3677 37.8566 48.3677 39.2421V46.2958C48.3677 47.6813 47.234 48.8149 45.8485 48.8149H38.7949C37.4094 48.8149 36.2757 49.9485 36.2757 51.3341V58.3877C36.2757 59.7732 35.1421 60.9068 33.7566 60.9068H26.703C25.3174 60.9068 24.1838 59.7732 24.1838 58.3877V51.3341C24.1838 49.9485 23.0502 48.8149 21.6647 48.8149H14.6111C13.2255 48.8149 12.0919 47.6813 12.0919 46.2958V39.2421C12.0919 37.8566 10.9583 36.723 9.57277 36.723H2.51915C1.13362 36.723 0 35.5894 0 34.2039V27.1502C0 25.7647 1.13362 24.6311 2.51915 24.6311H9.57277C10.9583 24.6311 12.0919 23.4975 12.0919 22.1119V15.0583C12.0919 13.6728 13.2255 12.5392 14.6111 12.5392H21.6647C23.0502 12.5392 24.1838 11.4056 24.1838 10.02V2.96641C24.1838 1.58088 25.3174 0.447266 26.703 0.447266H33.7566C35.1421 0.447266 36.2757 1.58088 36.2757 2.96641V10.02C36.2757 11.4056 37.4094 12.5392 38.7949 12.5392H45.8485C47.234 12.5392 48.3677 13.6728 48.3677 15.0583V22.1119C48.3677 23.4975 47.234 24.6311 45.8485 24.6311H38.7949C37.4094 24.6311 36.2757 23.4975 36.2757 22.1119Z" fill="#2988CC"/>
<path d="M80.7387 49.3196C77.4638 49.3196 74.3149 48.5639 72.4255 47.5562V12.666H77.4638V24.632C78.7234 24.1281 80.6128 23.6243 82.2502 23.6243C88.6741 23.6243 92.9566 28.2847 92.9566 35.8422C92.9566 45.163 88.1702 49.3196 80.7387 49.3196ZM81.3685 27.529C79.983 27.529 78.3455 27.9069 77.4638 28.4107V44.7852C78.2196 45.163 79.6051 45.415 81.1166 45.415C85.1472 45.415 88.0443 42.6439 88.0443 36.346C87.9183 30.8039 85.3992 27.529 81.3685 27.529Z" fill="#002B5C"/>
<path d="M117.392 36.2207L100.892 38.4879C101.396 43.0224 104.293 45.1637 108.449 45.1637C110.969 45.1637 113.614 44.5339 115.377 43.6522L116.889 47.4309C114.999 48.4386 111.598 49.1943 108.197 49.1943C100.388 49.1943 95.9796 44.156 95.9796 36.2207C95.9796 28.6633 100.262 23.373 107.19 23.373C113.614 23.373 117.518 27.6556 117.518 34.3313C117.392 34.9611 117.392 35.5909 117.392 36.2207ZM107.064 27.1518C103.159 27.1518 100.64 30.0488 100.514 35.213L112.606 33.5756C112.606 29.293 110.339 27.1518 107.064 27.1518Z" fill="#002B5C"/>
<path d="M129.484 49.1943C125.076 49.1943 122.683 46.8011 122.683 41.8887V27.7815H119.282V24.0028H122.683V18.2088L127.595 16.6973V24.0028H132.633V27.7815H127.595V41.6368C127.595 43.9041 129.106 44.7858 130.87 44.7858C131.5 44.7858 132.129 44.6598 132.633 44.4079V48.5645C132.003 48.8164 130.87 49.1943 129.484 49.1943Z" fill="#002B5C"/>
<path d="M144.599 49.1943C140.191 49.1943 137.797 46.8011 137.797 41.8887V27.7815H134.397V24.0028H137.797V18.2088L142.71 16.6973V24.0028H147.748V27.7815H142.71V41.6368C142.71 43.9041 144.221 44.7858 145.985 44.7858C146.614 44.7858 147.244 44.6598 147.748 44.4079V48.5645C147.118 48.8164 145.859 49.1943 144.599 49.1943Z" fill="#002B5C"/>
<path d="M171.176 36.2207L154.676 38.4879C155.18 43.0224 158.077 45.1637 162.233 45.1637C164.752 45.1637 167.397 44.5339 169.161 43.6522L170.672 47.4309C168.783 48.4386 165.382 49.1943 161.981 49.1943C154.172 49.1943 149.763 44.156 149.763 36.2207C149.763 28.6633 154.046 23.373 160.974 23.373C167.397 23.373 171.302 27.6556 171.302 34.3313C171.302 34.9611 171.302 35.5909 171.176 36.2207ZM160.848 27.1518C156.943 27.1518 154.424 30.0488 154.298 35.213L166.39 33.5756C166.39 29.293 164.249 27.1518 160.848 27.1518Z" fill="#002B5C"/>
<path d="M186.543 27.7806C185.787 27.6546 184.906 27.5287 184.024 27.5287C182.638 27.5287 181.127 27.7806 180.119 28.1585V48.8155H175.081V25.2615C177.474 24.2538 181.001 23.498 184.654 23.498C185.787 23.498 186.669 23.498 187.425 23.624L186.543 27.7806Z" fill="#002B5C"/>
<path d="M199.517 49.3193C193.975 49.3193 188.558 45.4146 188.558 36.3457C188.558 27.4027 193.975 23.498 199.517 23.498C202.288 23.498 204.303 24.1278 205.94 25.2615L204.303 28.9142C203.295 28.1585 201.784 27.6546 200.272 27.6546C196.998 27.6546 193.849 30.2997 193.849 36.3457C193.849 42.3917 196.998 45.1627 200.272 45.1627C201.784 45.1627 203.295 44.6589 204.303 43.9031L205.94 47.6819C204.303 48.6895 202.288 49.3193 199.517 49.3193Z" fill="#002B5C"/>
<path d="M218.41 49.3193C211.357 49.3193 207.452 43.7772 207.452 36.3457C207.452 28.9142 211.357 23.498 218.41 23.498C225.464 23.498 229.369 29.0402 229.369 36.3457C229.243 43.7772 225.464 49.3193 218.41 49.3193ZM218.41 27.5287C214.506 27.5287 212.616 31.0555 212.616 36.3457C212.616 41.6359 214.506 45.2887 218.41 45.2887C222.315 45.2887 224.204 41.7619 224.204 36.3457C224.204 30.9295 222.315 27.5287 218.41 27.5287Z" fill="#002B5C"/>
<path d="M242.72 49.3193C235.54 49.3193 232.014 46.4223 232.014 41.51C232.014 34.5823 239.445 33.3227 246.877 32.9449V31.4334C246.877 28.2844 244.861 27.1508 241.586 27.1508C239.193 27.1508 236.422 27.9066 234.659 28.6623L233.399 25.2615C235.415 24.3798 238.689 23.498 242.09 23.498C248.01 23.498 251.663 25.7653 251.663 31.9372V47.5559C249.9 48.5636 246.247 49.3193 242.72 49.3193ZM246.877 36.3457C241.838 36.5976 236.674 36.9755 236.674 41.51C236.674 44.1551 238.689 45.7925 242.468 45.7925C244.106 45.7925 245.995 45.5406 246.751 45.1627V36.3457H246.877Z" fill="#002B5C"/>
<path d="M266.4 49.3193C260.858 49.3193 255.442 45.4146 255.442 36.3457C255.442 27.4027 260.858 23.498 266.4 23.498C269.171 23.498 271.186 24.1278 272.824 25.2615L271.186 28.9142C270.179 28.1585 268.667 27.6546 267.156 27.6546C263.881 27.6546 260.732 30.2997 260.732 36.3457C260.732 42.3917 263.881 45.1627 267.156 45.1627C268.667 45.1627 270.179 44.6589 271.186 43.9031L272.824 47.6819C271.186 48.6895 269.171 49.3193 266.4 49.3193Z" fill="#002B5C"/>
<path d="M290.962 48.8158V32.3154C290.962 29.1664 288.946 27.529 285.672 27.529C284.16 27.529 282.397 28.0328 281.263 28.6626V48.8158H276.225V12.666H281.263V24.8839C282.775 24.1281 284.916 23.4984 286.805 23.4984C292.599 23.4984 296.126 26.3954 296.126 31.8115V48.6898H290.962V48.8158Z" fill="#002B5C"/>
</g>
<defs>
<clipPath id="clip0_394_11724">
<rect width="296" height="60.4596" fill="white" transform="translate(0 0.447266)"/>
</clipPath>
</defs>
</svg>
