<svg width="197" height="40" viewBox="0 0 197 40" fill="none" xmlns="http://www.w3.org/2000/svg">
<g clip-path="url(#clip0_163_1668)">
<path d="M24.75 14.3333V9.66667C24.75 8.75 24 8 23.0833 8H18.4167C17.5 8 16.75 8.75 16.75 9.66667V14.3333C16.75 15.25 16 16 15.0833 16H10.4167C9.5 16 8.75 16.75 8.75 17.6667V22.3333C8.75 23.25 9.5 24 10.4167 24H15.0833C16 24 16.75 24.75 16.75 25.6667V30.3333C16.75 31.25 17.5 32 18.4167 32H23.0833C24 32 24.75 31.25 24.75 30.3333V25.6667C24.75 24.75 25.5 24 26.4167 24H31.0833C32 24 32.75 24.75 32.75 25.6667V30.3333C32.75 31.25 32 32 31.0833 32H26.4167C25.5 32 24.75 32.75 24.75 33.6667V38.3333C24.75 39.25 24 40 23.0833 40H18.4167C17.5 40 16.75 39.25 16.75 38.3333V33.6667C16.75 32.75 16 32 15.0833 32H10.4167C9.5 32 8.75 31.25 8.75 30.3333V25.6667C8.75 24.75 8 24 7.08333 24H2.41667C1.5 24 0.75 23.25 0.75 22.3333V17.6667C0.75 16.75 1.5 16 2.41667 16H7.08333C8 16 8.75 15.25 8.75 14.3333V9.66667C8.75 8.75 9.5 8 10.4167 8H15.0833C16 8 16.75 7.25 16.75 6.33333V1.66667C16.75 0.75 17.5 0 18.4167 0H23.0833C24 0 24.75 0.75 24.75 1.66667V6.33333C24.75 7.25 25.5 8 26.4167 8H31.0833C32 8 32.75 8.75 32.75 9.66667V14.3333C32.75 15.25 32 16 31.0833 16H26.4167C25.5 16 24.75 15.25 24.75 14.3333Z" fill="#FFFBF7"/>
<path d="M54.1667 32.3335C52.0001 32.3335 49.9167 31.8335 48.6667 31.1668V8.0835H52.0001V16.0002C52.8334 15.6668 54.0834 15.3335 55.1668 15.3335C59.4167 15.3335 62.2501 18.4168 62.2501 23.4168C62.2501 29.5835 59.0834 32.3335 54.1667 32.3335ZM54.5834 17.9168C53.6667 17.9168 52.5834 18.1668 52.0001 18.5002V29.3335C52.5001 29.5835 53.4167 29.7502 54.4167 29.7502C57.0834 29.7502 59.0001 27.9168 59.0001 23.7502C58.9167 20.0835 57.2501 17.9168 54.5834 17.9168Z" fill="#FFFBF7"/>
<path d="M78.4167 23.667L67.5 25.167C67.8333 28.167 69.75 29.5837 72.5 29.5837C74.1667 29.5837 75.9167 29.167 77.0833 28.5837L78.0833 31.0837C76.8333 31.7503 74.5833 32.2503 72.3333 32.2503C67.1667 32.2503 64.25 28.917 64.25 23.667C64.25 18.667 67.0833 15.167 71.6667 15.167C75.9167 15.167 78.5 18.0003 78.5 22.417C78.4167 22.8337 78.4167 23.2503 78.4167 23.667ZM71.5833 17.667C69 17.667 67.3333 19.5837 67.25 23.0003L75.25 21.917C75.25 19.0837 73.75 17.667 71.5833 17.667Z" fill="#FFFBF7"/>
<path d="M86.4168 32.25C83.5001 32.25 81.9168 30.6667 81.9168 27.4167V18.0833H79.6667V15.5833H81.9168V11.75L85.1668 10.75V15.5833H88.5001V18.0833H85.1668V27.25C85.1668 28.75 86.1667 29.3333 87.3334 29.3333C87.7501 29.3333 88.1668 29.25 88.5001 29.0833V31.8333C88.0834 32 87.3334 32.25 86.4168 32.25Z" fill="#FFFBF7"/>
<path d="M96.4168 32.25C93.5001 32.25 91.9168 30.6667 91.9168 27.4167V18.0833H89.6667V15.5833H91.9168V11.75L95.1668 10.75V15.5833H98.5001V18.0833H95.1668V27.25C95.1668 28.75 96.1667 29.3333 97.3334 29.3333C97.7501 29.3333 98.1668 29.25 98.5001 29.0833V31.8333C98.0834 32 97.2501 32.25 96.4168 32.25Z" fill="#FFFBF7"/>
<path d="M114 23.667L103.083 25.167C103.417 28.167 105.334 29.5837 108.084 29.5837C109.75 29.5837 111.5 29.167 112.667 28.5837L113.667 31.0837C112.417 31.7503 110.167 32.2503 107.917 32.2503C102.75 32.2503 99.8335 28.917 99.8335 23.667C99.8335 18.667 102.667 15.167 107.25 15.167C111.5 15.167 114.084 18.0003 114.084 22.417C114.084 22.8337 114.083 23.2503 114 23.667ZM107.167 17.667C104.583 17.667 102.917 19.5837 102.833 23.0003L110.834 21.917C110.834 19.0837 109.417 17.667 107.167 17.667Z" fill="#FFFBF7"/>
<path d="M124.167 18.0833C123.667 18 123.084 17.9167 122.5 17.9167C121.584 17.9167 120.583 18.0833 119.917 18.3333V32H116.583V16.4167C118.167 15.75 120.5 15.25 122.917 15.25C123.667 15.25 124.25 15.25 124.75 15.3333L124.167 18.0833Z" fill="#FFFBF7"/>
<path d="M132.75 32.3333C129.083 32.3333 125.5 29.75 125.5 23.75C125.5 17.8333 129.083 15.25 132.75 15.25C134.583 15.25 135.917 15.6667 137 16.4167L135.917 18.8333C135.25 18.3333 134.25 18 133.25 18C131.083 18 129 19.75 129 23.75C129 27.75 131.083 29.5833 133.25 29.5833C134.25 29.5833 135.25 29.25 135.917 28.75L137 31.25C135.917 31.9167 134.583 32.3333 132.75 32.3333Z" fill="#FFFBF7"/>
<path d="M145.25 32.3333C140.583 32.3333 138 28.6667 138 23.75C138 18.8333 140.583 15.25 145.25 15.25C149.917 15.25 152.5 18.9167 152.5 23.75C152.417 28.6667 149.917 32.3333 145.25 32.3333ZM145.25 17.9167C142.667 17.9167 141.417 20.25 141.417 23.75C141.417 27.25 142.667 29.6667 145.25 29.6667C147.833 29.6667 149.083 27.3333 149.083 23.75C149.083 20.1667 147.833 17.9167 145.25 17.9167Z" fill="#FFFBF7"/>
<path d="M161.333 32.3333C156.583 32.3333 154.25 30.4167 154.25 27.1667C154.25 22.5833 159.167 21.75 164.083 21.5V20.5C164.083 18.4167 162.75 17.6667 160.583 17.6667C159 17.6667 157.167 18.1667 156 18.6667L155.167 16.4167C156.5 15.8333 158.667 15.25 160.917 15.25C164.833 15.25 167.25 16.75 167.25 20.8333V31.1667C166.083 31.8333 163.667 32.3333 161.333 32.3333ZM164.083 23.75C160.75 23.9167 157.333 24.1667 157.333 27.1667C157.333 28.9167 158.667 30 161.167 30C162.25 30 163.5 29.8333 164 29.5833V23.75H164.083Z" fill="#FFFBF7"/>
<path d="M177 32.3333C173.333 32.3333 169.75 29.75 169.75 23.75C169.75 17.8333 173.333 15.25 177 15.25C178.833 15.25 180.167 15.6667 181.25 16.4167L180.167 18.8333C179.5 18.3333 178.5 18 177.5 18C175.333 18 173.25 19.75 173.25 23.75C173.25 27.75 175.333 29.5833 177.5 29.5833C178.5 29.5833 179.5 29.25 180.167 28.75L181.25 31.25C180.167 31.9167 178.833 32.3333 177 32.3333Z" fill="#FFFBF7"/>
<path d="M193.25 32.0002V21.0835C193.25 19.0002 191.917 17.9168 189.75 17.9168C188.75 17.9168 187.583 18.2502 186.833 18.6668V32.0002H183.5V8.0835H186.833V16.1668C187.833 15.6668 189.25 15.2502 190.5 15.2502C194.333 15.2502 196.667 17.1668 196.667 20.7502V31.9168H193.25V32.0002Z" fill="#FFFBF7"/>
</g>
<defs>
<clipPath id="clip0_163_1668">
<rect width="195.833" height="40" fill="white" transform="translate(0.75)"/>
</clipPath>
</defs>
</svg>
